<svg xmlns="http://www.w3.org/2000/svg" viewBox="0 0 32 32" shape-rendering="crispEdges">
  <rect width="32" height="32" fill="none"/>
  <rect x="12" y="3" width="8" height="2" fill="#7a1212"/>
  <rect x="10" y="5" width="12" height="2" fill="#a81d1d"/>
  <rect x="8" y="7" width="16" height="2" fill="#cf3232"/>
  <rect x="7" y="9" width="18" height="2" fill="#e14848"/>
  <rect x="6" y="11" width="20" height="2" fill="#b92b2b"/>
  <rect x="7" y="13" width="18" height="2" fill="#ffffff"/>
  <rect x="6" y="15" width="20" height="6" fill="#ffffff"/>
  <rect x="8" y="21" width="16" height="3" fill="#ffffff"/>
  <rect x="10" y="24" width="12" height="2" fill="#f0f0f0"/>
  <rect x="11" y="10" width="3" height="3" fill="#ffffff"/>
  <rect x="18" y="10" width="3" height="3" fill="#ffffff"/>
  <rect x="10" y="15" width="4" height="4" fill="#911818"/>
  <rect x="18" y="15" width="4" height="4" fill="#911818"/>
  <rect x="11" y="16" width="2" height="2" fill="#2a0606"/>
  <rect x="19" y="16" width="2" height="2" fill="#2a0606"/>
  <rect x="15" y="18" width="2" height="3" fill="#cf3232"/>
  <rect x="13" y="23" width="2" height="3" fill="#911818"/>
  <rect x="17" y="23" width="2" height="3" fill="#911818"/>
  <rect x="15" y="24" width="2" height="2" fill="#7a1212"/>
  <rect x="8" y="24" width="2" height="2" fill="#cf3232"/>
  <rect x="22" y="24" width="2" height="2" fill="#cf3232"/>
  <rect x="9" y="26" width="2" height="2" fill="#a81d1d"/>
  <rect x="21" y="26" width="2" height="2" fill="#a81d1d"/>
</svg>
