<svg xmlns="http://www.w3.org/2000/svg" viewBox="0 0 64 64">
  <rect width="64" height="64" rx="16" fill="#182116"/>
  <ellipse cx="32" cy="53" rx="15" ry="5" fill="#081006" opacity=".45"/>
  <rect x="27" y="8" width="10" height="10" rx="3" fill="#d8d4c3"/>
  <rect x="23" y="15" width="18" height="8" rx="4" fill="#948d7a"/>
  <path d="M22 22h20l4 8v17c0 7-6 12-14 12s-14-5-14-12V30z" fill="#d7ead0" stroke="#314127" stroke-width="3"/>
  <path d="M24 31h16c4 0 8 3 8 8v7c0 6-5 10-11 10h-10c-6 0-11-4-11-10v-7c0-5 4-8 8-8z" fill="#7ecf6d"/>
  <path d="M24 38c4-4 12-5 18-2" stroke="#dff8d5" stroke-width="3" stroke-linecap="round" opacity=".7"/>
</svg>
