<svg xmlns="http://www.w3.org/2000/svg" width="32" height="32" viewBox="0 0 32 32" shape-rendering="crispEdges">
  <rect width="32" height="32" fill="#5e9349"/>
  <rect y="20" width="32" height="12" fill="#4d7d3a"/>
  <rect x="2" y="3" width="4" height="4" fill="#84be63"/>
  <rect x="22" y="2" width="5" height="4" fill="#84be63"/>
  <rect x="12" y="5" width="4" height="3" fill="#74ab58"/>
  <rect x="7" y="12" width="2" height="8" fill="#2c5626"/>
  <rect x="9" y="9" width="2" height="11" fill="#3c6a2d"/>
  <rect x="11" y="14" width="2" height="7" fill="#2c5626"/>
  <rect x="15" y="8" width="2" height="13" fill="#3c6a2d"/>
  <rect x="17" y="11" width="2" height="10" fill="#2c5626"/>
  <rect x="19" y="6" width="2" height="15" fill="#3c6a2d"/>
  <rect x="21" y="13" width="2" height="8" fill="#2c5626"/>
  <rect x="24" y="10" width="2" height="11" fill="#3c6a2d"/>
  <rect x="5" y="22" width="22" height="2" fill="#345f29"/>
  <rect x="4" y="25" width="24" height="2" fill="#2a4f23"/>
  <rect x="8" y="28" width="16" height="2" fill="#223f1e"/>
  <rect x="4" y="18" width="3" height="3" fill="#ffd166"/>
  <rect x="6" y="16" width="3" height="3" fill="#ff8c42"/>
  <rect x="23" y="17" width="3" height="3" fill="#ffd166"/>
  <rect x="21" y="14" width="3" height="3" fill="#ff8c42"/>
</svg>
