<svg xmlns="http://www.w3.org/2000/svg" width="32" height="32" viewBox="0 0 32 32" shape-rendering="crispEdges">
  <rect width="32" height="32" fill="#68615c"/>
  <rect y="20" width="32" height="12" fill="#544e4a"/>
  <rect x="2" y="3" width="6" height="5" fill="#7c7570"/>
  <rect x="14" y="2" width="7" height="4" fill="#7f7872"/>
  <rect x="24" y="5" width="5" height="4" fill="#7a746d"/>
  <rect x="3" y="14" width="8" height="6" fill="#746d67"/>
  <rect x="12" y="10" width="7" height="7" fill="#807972"/>
  <rect x="21" y="13" width="8" height="6" fill="#706963"/>
  <rect x="5" y="24" width="7" height="4" fill="#47413d"/>
  <rect x="15" y="23" width="8" height="4" fill="#443f3b"/>
  <rect x="24" y="25" width="4" height="3" fill="#403a37"/>
  <rect x="7" y="8" width="1" height="14" fill="#2f2b2a"/>
  <rect x="16" y="6" width="1" height="18" fill="#2f2b2a"/>
  <rect x="23" y="9" width="1" height="16" fill="#2f2b2a"/>
  <rect x="8" y="19" width="8" height="1" fill="#2f2b2a"/>
  <rect x="17" y="17" width="8" height="1" fill="#2f2b2a"/>
  <rect x="10" y="21" width="2" height="2" fill="#ffb347"/>
  <rect x="17" y="19" width="2" height="2" fill="#ff7a2f"/>
  <rect x="24" y="21" width="2" height="2" fill="#ffb347"/>
  <rect x="14" y="26" width="2" height="2" fill="#ff7a2f"/>
</svg>
