<svg xmlns="http://www.w3.org/2000/svg" width="96" height="96" viewBox="0 0 48 48" shape-rendering="crispEdges">
  <rect width="48" height="48" fill="none"/>
  <rect x="13" y="2" width="5" height="8" fill="#ef8e49"/>
  <rect x="30" y="2" width="5" height="8" fill="#ef8e49"/>
  <rect x="11" y="10" width="26" height="8" fill="#4e2d23"/>
  <rect x="8" y="12" width="4" height="5" fill="#301914"/>
  <rect x="36" y="12" width="4" height="5" fill="#301914"/>
  <rect x="10" y="18" width="28" height="10" fill="#5b3428"/>
  <rect x="15" y="19" width="4" height="4" fill="#f4ebdc"/>
  <rect x="29" y="19" width="4" height="4" fill="#f4ebdc"/>
  <rect x="20" y="23" width="8" height="5" fill="#f2a14f"/>
  <rect x="17" y="28" width="14" height="8" fill="#5b3428"/>
  <rect x="13" y="29" width="4" height="6" fill="#4a2a20"/>
  <rect x="31" y="29" width="4" height="6" fill="#4a2a20"/>
  <rect x="17" y="36" width="4" height="9" fill="#3a221a"/>
  <rect x="27" y="36" width="4" height="9" fill="#3a221a"/>
  <rect x="13" y="45" width="22" height="2" fill="#6e3a20" fill-opacity="0.2"/>
</svg>
