<svg xmlns="http://www.w3.org/2000/svg" width="96" height="96" viewBox="0 0 48 48" shape-rendering="crispEdges">
  <rect width="48" height="48" fill="none"/>
  <rect x="14" y="3" width="6" height="5" fill="#84bb63"/>
  <rect x="28" y="3" width="6" height="5" fill="#6c9e54"/>
  <rect x="11" y="8" width="26" height="9" fill="#79af61"/>
  <rect x="9" y="12" width="4" height="4" fill="#84bb63"/>
  <rect x="35" y="12" width="4" height="4" fill="#6c9e54"/>
  <rect x="10" y="16" width="28" height="12" fill="#4d7346"/>
  <rect x="8" y="20" width="4" height="7" fill="#4d7346"/>
  <rect x="36" y="20" width="4" height="7" fill="#4d7346"/>
  <rect x="15" y="18" width="4" height="4" fill="#1f2e1f"/>
  <rect x="29" y="18" width="4" height="4" fill="#1f2e1f"/>
  <rect x="20" y="24" width="8" height="2" fill="#eef1d4"/>
  <rect x="17" y="28" width="14" height="8" fill="#4d7346"/>
  <rect x="14" y="29" width="3" height="6" fill="#4d7346"/>
  <rect x="31" y="29" width="3" height="6" fill="#4d7346"/>
  <rect x="17" y="36" width="4" height="8" fill="#2f4730"/>
  <rect x="27" y="36" width="4" height="8" fill="#2f4730"/>
  <rect x="14" y="44" width="20" height="2" fill="#5f7453" fill-opacity="0.22"/>
</svg>
