<svg width="32" height="32" viewBox="0 0 32 32" fill="none" xmlns="http://www.w3.org/2000/svg">
  <ellipse cx="16" cy="25.2" rx="7.8" ry="2.8" fill="#2B4A45" fill-opacity="0.18"/>
  <path d="M11 24.8L13 23L14.8 24.8L12.7 27H11L9.8 25.3L11 24.8Z" fill="#4A5F41"/>
  <path d="M19.8 24.8L21.5 22.8L23.8 24.4L22.4 27H20.2L19 25.2L19.8 24.8Z" fill="#43603A"/>
  <path d="M14.1 24.7L15.7 9L18.8 24.7H14.1Z" fill="#6BCCE3"/>
  <path d="M9.5 24.7L11.8 14.1L14.9 24.7H9.5Z" fill="#4CA8C1"/>
  <path d="M17.8 24.7L20.9 12.2L24 24.7H17.8Z" fill="#A2F6FF"/>
  <path d="M16.2 11L17.4 17.6" stroke="#E7FFFF" stroke-width="1.1" stroke-linecap="round"/>
  <circle cx="22.4" cy="10.4" r="1.4" fill="#D8FFF7"/>
</svg>
