<svg width="32" height="32" viewBox="0 0 32 32" fill="none" xmlns="http://www.w3.org/2000/svg">
  <ellipse cx="16" cy="25" rx="7" ry="2.6" fill="#2D1A16" fill-opacity="0.16"/>
  <ellipse cx="16" cy="25.6" rx="6.1" ry="1.8" fill="#56342A"/>
  <path d="M11.2 24V18.1" stroke="#714536" stroke-width="1.6" stroke-linecap="round"/>
  <path d="M16.2 24V15.6" stroke="#8B543E" stroke-width="1.6" stroke-linecap="round"/>
  <path d="M21 24V18.8" stroke="#714536" stroke-width="1.6" stroke-linecap="round"/>
  <path d="M7.6 18.4C7.6 16.1 9.8 14.1 12.6 14.1C15.4 14.1 17.5 16.1 17.5 18.4H7.6Z" fill="#D08A55"/>
  <path d="M12.8 15.7C12.8 13.2 15.2 11.2 18.3 11.2C21.3 11.2 23.7 13.2 23.7 15.7H12.8Z" fill="#FFD08F"/>
  <path d="M16.5 19.2C16.5 16.8 18.9 15 22 15C25.1 15 27.5 16.8 27.5 19.2H16.5Z" fill="#B96A4B"/>
</svg>
