<svg width="32" height="32" viewBox="0 0 32 32" fill="none" xmlns="http://www.w3.org/2000/svg">
  <ellipse cx="16" cy="25.3" rx="7.2" ry="2.6" fill="#405336" fill-opacity="0.17"/>
  <ellipse cx="16" cy="25.8" rx="6" ry="1.8" fill="#556742"/>
  <path d="M11.4 24.4C11.4 18.3 13.2 13.1 16 13.1C18.8 13.1 20.6 18.3 20.6 24.4H11.4Z" fill="#94B371"/>
  <path d="M13.1 13.7L10.2 17.2" stroke="#6D8C53" stroke-width="1.8" stroke-linecap="round"/>
  <path d="M18.9 13.7L21.8 17.2" stroke="#6D8C53" stroke-width="1.8" stroke-linecap="round"/>
  <path d="M13.9 17.5L15.2 22.5" stroke="#D7E8B7" stroke-width="1" stroke-linecap="round"/>
  <path d="M18.1 17.5L16.8 22.5" stroke="#D7E8B7" stroke-width="1" stroke-linecap="round"/>
  <path d="M16 14.6C17.7 16.2 18.9 18.6 18.9 21.2C18.9 23.9 17.7 24.9 16 24.9C14.3 24.9 13.1 23.9 13.1 21.2C13.1 18.6 14.3 16.2 16 14.6Z" fill="#5F7647"/>
</svg>
