<svg xmlns="http://www.w3.org/2000/svg" viewBox="0 0 64 64">
  <rect width="64" height="64" fill="#100e0c"/>
  <ellipse cx="32" cy="54" rx="16" ry="5" fill="#040300" opacity=".5"/>
  <path d="M8 14 Q14 34 24 57 L29 54 Q21 32 13 12 Z" fill="#c8ccd4" stroke="#282c32" stroke-width="1.5"/>
  <path d="M23 8 Q31 28 38 56 L43 53 Q36 26 28 7 Z" fill="#dde0e8" stroke="#282c32" stroke-width="1.5"/>
  <path d="M39 10 Q47 28 51 56 L56 53 Q52 26 44 9 Z" fill="#c8ccd4" stroke="#282c32" stroke-width="1.5"/>
  <polygon points="24,57 29,54 27,59" fill="#eef2f8"/>
  <polygon points="38,56 43,53 41,58" fill="#eef2f8"/>
  <polygon points="51,56 56,53 54,58" fill="#eef2f8"/>
</svg>
